<?xml version="1.0" encoding="UTF-8" standalone="no"?>
<!DOCTYPE svg PUBLIC "-//W3C//DTD SVG 1.1//EN" "http://www.w3.org/Graphics/SVG/1.1/DTD/svg11.dtd">
<svg xmlns="http://www.w3.org/2000/svg" version="1.1" width="45" height="45" viewBox="0 0 45 45">
<defs>
  <linearGradient id="wood" x1="0" y1="0" x2="1" y2="0.12">
    <stop offset="0" stop-color="#8e5a33"/>
    <stop offset="0.5" stop-color="#6b3f21"/>
    <stop offset="1" stop-color="#472813"/>
  </linearGradient>
  <filter id="grain" filterUnits="userSpaceOnUse" x="0" y="0" width="45" height="45" color-interpolation-filters="sRGB">
    <feTurbulence type="fractalNoise" baseFrequency="0.9 0.03" numOctaves="1" seed="11" result="noise"/>
    <feColorMatrix in="noise" type="matrix" values="0 0 0 0 0  0 0 0 0 0  0 0 0 0 0  0 0 0 -1.2 0.68" result="streaks"/>
    <feComposite in="streaks" in2="SourceAlpha" operator="in" result="grain"/>
    <feBlend in="SourceGraphic" in2="grain" mode="multiply"/>
  </filter>
</defs>
<g filter="url(#grain)">
  <path d="m 22.5,9 c -2.21,0 -4,1.79 -4,4 0,0.89 0.29,1.71 0.78,2.38 C 17.33,16.5 16,18.59 16,21 c 0,2.03 0.94,3.84 2.41,5.03 C 15.41,27.09 11,31.58 11,39.5 H 34 C 34,31.58 29.59,27.09 26.59,26.03 28.06,24.84 29,23.03 29,21 29,18.59 27.67,16.5 25.72,15.38 26.21,14.71 26.5,13.89 26.5,13 c 0,-2.21 -1.79,-4 -4,-4 z" style="opacity:1; fill:url(#wood); fill-opacity:1; fill-rule:nonzero; stroke:#1d110a; stroke-width:1.5; stroke-linecap:round; stroke-linejoin:miter; stroke-miterlimit:4; stroke-dasharray:none; stroke-opacity:1;"/>
</g>
</svg>
